<svg xmlns="http://www.w3.org/2000/svg"  viewBox="0 0 100 100" width="200px" height="200px"><path fill="#c7ede6" d="M87.215,56.71C88.35,54.555,89,52.105,89,49.5c0-6.621-4.159-12.257-10.001-14.478 C78.999,35.015,79,35.008,79,35c0-11.598-9.402-21-21-21c-9.784,0-17.981,6.701-20.313,15.757C36.211,29.272,34.638,29,33,29 c-7.692,0-14.023,5.793-14.89,13.252C12.906,43.353,9,47.969,9,53.5C9,59.851,14.149,65,20.5,65c0.177,0,0.352-0.012,0.526-0.022 C21.022,65.153,21,65.324,21,65.5C21,76.822,30.178,86,41.5,86c6.437,0,12.175-2.972,15.934-7.614C59.612,80.611,62.64,82,66,82 c4.65,0,8.674-2.65,10.666-6.518C77.718,75.817,78.837,76,80,76c6.075,0,11-4.925,11-11C91,61.689,89.53,58.727,87.215,56.71z"/><path fill="#fff" d="M71.5,24h-10c-0.276,0-0.5-0.224-0.5-0.5s0.224-0.5,0.5-0.5h10c0.276,0,0.5,0.224,0.5,0.5 S71.777,24,71.5,24z"/><path fill="#fff" d="M74.5,24h-1c-0.276,0-0.5-0.224-0.5-0.5s0.224-0.5,0.5-0.5h1c0.276,0,0.5,0.224,0.5,0.5 S74.777,24,74.5,24z"/><path fill="#fff" d="M79.491,26H70.5c-0.276,0-0.5-0.224-0.5-0.5s0.224-0.5,0.5-0.5h8.991c0.276,0,0.5,0.224,0.5,0.5 S79.767,26,79.491,26z"/><path fill="#fff" d="M68.5,26h-1c-0.276,0-0.5-0.224-0.5-0.5s0.224-0.5,0.5-0.5h1c0.276,0,0.5,0.224,0.5,0.5 S68.777,26,68.5,26z"/><path fill="#fff" d="M65.5,26h-2c-0.276,0-0.5-0.224-0.5-0.5s0.224-0.5,0.5-0.5h2c0.276,0,0.5,0.224,0.5,0.5 S65.777,26,65.5,26z"/><path fill="#fff" d="M71.5,28h-2c-0.276,0-0.5-0.224-0.5-0.5s0.224-0.5,0.5-0.5h2c0.276,0,0.5,0.224,0.5,0.5 S71.776,28,71.5,28z"/><path fill="#fff" d="M74.5,19c-0.177,0-0.823,0-1,0c-0.276,0-0.5,0.224-0.5,0.5c0,0.276,0.224,0.5,0.5,0.5 c0.177,0,0.823,0,1,0c0.276,0,0.5-0.224,0.5-0.5C75,19.224,74.776,19,74.5,19z"/><path fill="#fff" d="M74.5,21c-0.177,0-4.823,0-5,0c-0.276,0-0.5,0.224-0.5,0.5c0,0.276,0.224,0.5,0.5,0.5 c0.177,0,4.823,0,5,0c0.276,0,0.5-0.224,0.5-0.5C75,21.224,74.776,21,74.5,21z"/><path fill="#fff" d="M79.5,23c-0.177,0-2.823,0-3,0c-0.276,0-0.5,0.224-0.5,0.5c0,0.276,0.224,0.5,0.5,0.5 c0.177,0,2.823,0,3,0c0.276,0,0.5-0.224,0.5-0.5C80,23.224,79.776,23,79.5,23z"/><g><path fill="#fff" d="M30.5,76h-10c-0.276,0-0.5-0.224-0.5-0.5s0.224-0.5,0.5-0.5h10c0.276,0,0.5,0.224,0.5,0.5 S30.776,76,30.5,76z"/><path fill="#fff" d="M34.5,76h-2c-0.276,0-0.5-0.224-0.5-0.5s0.224-0.5,0.5-0.5h2c0.276,0,0.5,0.224,0.5,0.5 S34.776,76,34.5,76z"/><path fill="#fff" d="M39.5,78h-10c-0.276,0-0.5-0.224-0.5-0.5s0.224-0.5,0.5-0.5h10c0.276,0,0.5,0.224,0.5,0.5 S39.777,78,39.5,78z"/><path fill="#fff" d="M27.5,78h-1c-0.276,0-0.5-0.224-0.5-0.5s0.224-0.5,0.5-0.5h1c0.276,0,0.5,0.224,0.5,0.5 S27.776,78,27.5,78z"/><path fill="#fff" d="M24.47,78H22.5c-0.276,0-0.5-0.224-0.5-0.5s0.224-0.5,0.5-0.5h1.97c0.276,0,0.5,0.224,0.5,0.5 S24.746,78,24.47,78z"/><path fill="#fff" d="M33.5,74h-5c-0.276,0-0.5-0.224-0.5-0.5s0.224-0.5,0.5-0.5h5c0.276,0,0.5,0.224,0.5,0.5 S33.777,74,33.5,74z"/><path fill="#fff" d="M30.5,80h-2c-0.276,0-0.5-0.224-0.5-0.5s0.224-0.5,0.5-0.5h2c0.276,0,0.5,0.224,0.5,0.5 S30.776,80,30.5,80z"/></g><g><path fill="#fdfcef" d="M75.5,71.5V72h-3v-0.5c0,0-4.242,0-5.5,0c-2.485,0-4.5-2.015-4.5-4.5 c0-2.333,1.782-4.229,4.055-4.455C66.533,62.364,66.5,62.187,66.5,62c0-2.485,2.015-4.5,4.5-4.5c1.438,0,2.703,0.686,3.527,1.736 C74.667,56.6,76.829,54.5,79.5,54.5c2.761,0,5,2.239,5,5c0,0.446-0.077,0.87-0.187,1.282c0.642-0.777,1.6-1.282,2.687-1.282 c1.781,0,3.234,1.335,3.455,3.055C90.636,62.533,90.813,62.5,91,62.5c2.485,0,4.5,2.015,4.5,4.5s-2.015,4.5-4.5,4.5s-9.5,0-9.5,0 H75.5z"/><path fill="#472b29" d="M79.5,54c3.033,0,5.5,2.467,5.5,5.5c0,0.016,0,0.031,0,0.047C85.602,59.192,86.29,59,87,59 c1.831,0,3.411,1.261,3.858,3.005C90.905,62.002,90.952,62,91,62c2.757,0,5,2.243,5,5c0,2.757-2.243,5-5,5H75.5 c-0.276,0-0.5-0.224-0.5-0.5c0-0.276,0.224-0.5,0.5-0.5H91c2.206,0,4-1.794,4-4c0-2.206-1.794-4-4-4 c-0.117,0-0.23,0.017-0.343,0.032l-0.141,0.019c-0.021,0.003-0.041,0.004-0.062,0.004c-0.246,0-0.462-0.185-0.495-0.437 C89.768,61.125,88.496,60,87,60c-0.885,0-1.723,0.401-2.301,1.1c-0.098,0.118-0.241,0.182-0.386,0.182 c-0.078,0-0.156-0.018-0.228-0.056c-0.209-0.107-0.314-0.346-0.254-0.573C83.946,60.218,84,59.852,84,59.5 c0-2.481-2.019-4.5-4.5-4.5c-2.381,0-4.347,1.872-4.474,4.263c-0.011,0.208-0.15,0.387-0.349,0.45 c-0.05,0.016-0.101,0.024-0.152,0.024c-0.15,0-0.296-0.069-0.392-0.192C73.362,58.563,72.221,58,71,58c-2.206,0-4,1.794-4,4 c0,0.117,0.017,0.23,0.032,0.343l0.019,0.141c0.016,0.134-0.022,0.268-0.106,0.373c-0.084,0.105-0.207,0.172-0.34,0.185 C64.549,63.247,63,64.949,63,67c0,2.206,1.794,4,4,4h5.5c0.276,0,0.5,0.224,0.5,0.5c0,0.276-0.224,0.5-0.5,0.5H67 c-2.757,0-5-2.243-5-5c0-2.397,1.689-4.413,4.003-4.877C66.001,62.082,66,62.041,66,62c0-2.757,2.243-5,5-5 c1.176,0,2.293,0.416,3.183,1.164C74.781,55.76,76.945,54,79.5,54L79.5,54z"/><path fill="#472b29" d="M81,61c1.403,0,2.609,0.999,2.913,2.341C84.28,63.119,84.699,63,85.125,63 c1.202,0,2.198,0.897,2.353,2.068C87.681,65.022,87.874,65,88.063,65c1.529,0,2.811,1.2,2.918,2.732 C90.99,67.87,90.886,67.99,90.749,68c-0.006,0-0.012,0-0.018,0c-0.13,0-0.24-0.101-0.249-0.232 c-0.089-1.271-1.151-2.268-2.419-2.268c-0.229,0-0.47,0.042-0.738,0.127c-0.022,0.007-0.045,0.01-0.067,0.01 c-0.055,0-0.11-0.02-0.156-0.054C87.038,65.537,87,65.455,87,65.375c0-1.034-0.841-1.875-1.875-1.875 c-0.447,0-0.885,0.168-1.231,0.473c-0.047,0.041-0.106,0.063-0.165,0.063c-0.032,0-0.063-0.006-0.093-0.019 c-0.088-0.035-0.148-0.117-0.155-0.212C83.377,62.512,82.288,61.5,81,61.5c-0.208,0-0.425,0.034-0.682,0.107 c-0.023,0.007-0.047,0.01-0.07,0.01c-0.109,0-0.207-0.073-0.239-0.182c-0.038-0.133,0.039-0.271,0.172-0.309 C80.483,61.04,80.744,61,81,61L81,61z"/><path fill="#472b29" d="M67.117,62.5c1.326,0,2.508,0.897,2.874,2.182c0.038,0.133-0.039,0.271-0.172,0.309 C69.795,64.997,69.772,65,69.75,65c-0.109,0-0.209-0.072-0.24-0.182C69.205,63.748,68.221,63,67.117,63 c-0.117,0-0.23,0.014-0.342,0.029c-0.012,0.002-0.023,0.003-0.035,0.003c-0.121,0-0.229-0.092-0.246-0.217 c-0.019-0.137,0.077-0.263,0.214-0.281C66.842,62.516,66.978,62.5,67.117,62.5L67.117,62.5z"/></g><g><path fill="#836f61" d="M52.636,73.3c-5.47,0-10.71-1.888-14.898-5.282c2.991,1.185,6.18,1.8,9.406,1.8 c14.182,0,25.72-11.537,25.72-25.719c0-3.227-0.615-6.415-1.8-9.406c3.395,4.189,5.281,9.428,5.281,14.898 C76.345,62.664,65.709,73.3,52.636,73.3z"/><path fill="#472b29" d="M73.064,39.017c1.678,3.231,2.581,6.848,2.581,10.575c0,12.687-10.322,23.009-23.009,23.009 c-3.727,0-7.344-0.903-10.575-2.581c1.669,0.331,3.371,0.499,5.083,0.499c14.567,0,26.419-11.851,26.419-26.418 C73.563,42.387,73.394,40.685,73.064,39.017 M68.43,31c2.352,3.813,3.733,8.29,3.733,13.1c0,13.817-11.201,25.019-25.019,25.019 c-4.809,0-9.286-1.381-13.099-3.733C38.522,70.65,45.183,74,52.636,74c13.48,0,24.409-10.928,24.409-24.409 C77.044,42.139,73.695,35.477,68.43,31L68.43,31z"/><path fill="#836f61" d="M38.472,55.474c-3.528-2.679-5.639-6.849-5.639-11.375c0-3.597,1.34-7.021,3.78-9.674h4.339v5.24 c-2.362,2.778-3.661,6.292-3.661,9.925C37.291,51.62,37.694,53.615,38.472,55.474z"/><path fill="#472b29" d="M40.252,35.126v4.286c-2.365,2.873-3.661,6.466-3.661,10.18c0,1.21,0.137,2.41,0.406,3.578 c-2.2-2.451-3.464-5.653-3.464-9.069c0-3.319,1.2-6.483,3.392-8.974H40.252 M41.652,33.726H36.31 c-2.582,2.696-4.178,6.345-4.178,10.374c0,5.817,3.316,10.851,8.154,13.343c-1.447-2.271-2.296-4.959-2.296-7.852 c0-3.708,1.389-7.084,3.661-9.665V33.726L41.652,33.726z"/><path fill="#836f61" d="M53.246,50.112c-2.612,0-4.743-2.102-4.791-4.703c3.372-0.049,6.102-2.807,6.102-6.191v-4.792 h4.083l1.567,4.702h-2.169v6.192C58.038,47.962,55.889,50.112,53.246,50.112z"/><path fill="#472b29" d="M58.136,35.126l1.101,3.302h-0.498h-1.4v1.4v5.492c0,2.256-1.836,4.092-4.092,4.092 c-2.005,0-3.678-1.45-4.025-3.355c3.398-0.423,6.036-3.329,6.036-6.839v-4.092H58.136 M59.145,33.726h-5.288v5.492 c0,3.033-2.459,5.492-5.492,5.492c-0.209,0-0.407-0.039-0.61-0.062v0.672c0,3.033,2.459,5.492,5.492,5.492 s5.492-2.459,5.492-5.492v-5.492h2.441L59.145,33.726L59.145,33.726z"/><path fill="#472b29" d="M46.5,66.75c-3.323,0-6.532-0.686-9.538-2.04c-0.126-0.057-0.182-0.205-0.125-0.331 c0.057-0.126,0.206-0.181,0.331-0.125c2.941,1.325,6.081,1.996,9.333,1.996c0.138,0,0.25,0.112,0.25,0.25S46.638,66.75,46.5,66.75 z"/><path fill="#472b29" d="M50.119,66.467c-0.121,0-0.227-0.088-0.247-0.211c-0.021-0.136,0.072-0.264,0.208-0.286 c4.963-0.785,9.597-3.25,13.047-6.943c0.094-0.102,0.252-0.106,0.354-0.012c0.101,0.094,0.106,0.252,0.012,0.353 c-3.525,3.774-8.262,6.293-13.334,7.095C50.146,66.466,50.132,66.467,50.119,66.467z"/><g><path fill="#472b29" d="M65.268,57.049c-0.05,0-0.101-0.015-0.145-0.046c-0.112-0.08-0.14-0.236-0.06-0.349 c2.739-3.858,4.187-8.407,4.187-13.154c0-2.849-0.52-5.628-1.546-8.26c-0.05-0.129,0.014-0.274,0.143-0.324 c0.13-0.05,0.273,0.013,0.324,0.142c1.048,2.689,1.579,5.53,1.579,8.441c0,4.851-1.479,9.5-4.278,13.444 C65.423,57.012,65.346,57.049,65.268,57.049z"/></g><g><path fill="#472b29" d="M31.5,52.75c-0.084,0-0.167-0.043-0.214-0.121c-3.075-5.126-2.785-8.374-2.132-11.794 c0.025-0.136,0.159-0.225,0.292-0.199c0.136,0.026,0.225,0.157,0.199,0.292c-0.633,3.318-0.915,6.469,2.07,11.443 c0.071,0.118,0.033,0.272-0.086,0.343C31.588,52.739,31.544,52.75,31.5,52.75z"/></g><g><path fill="#472b29" d="M30.337,37.835c-0.03,0-0.06-0.005-0.089-0.016c-0.129-0.049-0.193-0.194-0.144-0.323 c0.979-2.566,2.149-4.086,2.199-4.149c0.084-0.109,0.242-0.128,0.351-0.044c0.109,0.085,0.129,0.242,0.044,0.351 c-0.012,0.015-1.176,1.529-2.126,4.021C30.533,37.774,30.438,37.835,30.337,37.835z"/></g></g><g><path fill="#fdfcef" d="M13.5,62.5c0,0-1.567,0-3.5,0S6.5,60.933,6.5,59c0-1.781,1.335-3.234,3.055-3.455 C9.527,55.366,9.5,55.187,9.5,55c0-1.933,1.567-3.5,3.5-3.5c1.032,0,1.95,0.455,2.59,1.165c0.384-1.808,1.987-3.165,3.91-3.165 c2.209,0,4,1.791,4,4c0,0.191-0.03,0.374-0.056,0.558C23.872,53.714,24.408,53.5,25,53.5c1.228,0,2.245,0.887,2.455,2.055 C27.634,55.527,27.813,55.5,28,55.5c1.933,0,3.5,1.567,3.5,3.5s-1.567,3.5-3.5,3.5s-7.5,0-7.5,0V63h-7V62.5z"/><path fill="#472b29" d="M11.75,58c0.138,0,0.25-0.112,0.25-0.25c0-1.223-0.995-2.218-2.218-2.218 c-0.034,0.009-0.737-0.001-1.244,0.136c-0.133,0.036-0.212,0.173-0.176,0.306c0.036,0.134,0.173,0.213,0.306,0.176 c0.444-0.12,1.1-0.12,1.113-0.118c0.948,0,1.719,0.771,1.719,1.718C11.5,57.888,11.612,58,11.75,58z"/><circle cx="18.5" cy="62.5" r=".5" fill="#472b29"/><path fill="#472b29" d="M10,63h3.5c0.276,0,0.5-0.224,0.5-0.5S13.776,62,13.5,62H10c-1.654,0-3-1.346-3-3 c0-1.496,1.125-2.768,2.618-2.959c0.134-0.018,0.255-0.088,0.336-0.196s0.115-0.244,0.094-0.377C10.025,55.314,10,55.16,10,55 c0-1.654,1.346-3,3-3c0.85,0,1.638,0.355,2.219,1c0.125,0.139,0.321,0.198,0.5,0.148c0.182-0.049,0.321-0.195,0.36-0.379 C16.42,51.165,17.859,50,19.5,50c1.93,0,3.5,1.57,3.5,3.5c0,0.143-0.021,0.28-0.041,0.418c-0.029,0.203,0.063,0.438,0.242,0.54 c0.179,0.102,0.396,0.118,0.556-0.01C24.122,54.155,24.551,54,25,54c0.966,0,1.792,0.691,1.963,1.644 c0.048,0.267,0.296,0.446,0.569,0.405C27.686,56.025,27.84,56,28,56c1.654,0,3,1.346,3,3s-1.346,3-3,3h-7.5 c-0.276,0-0.5,0.224-0.5,0.5s0.224,0.5,0.5,0.5H28c2.206,0,4-1.794,4-4s-1.794-4-4-4c-0.059,0-0.116,0.002-0.174,0.006 C27.412,53.82,26.289,53,25,53c-0.349,0-0.689,0.061-1.011,0.18C23.824,50.847,21.874,49,19.5,49 c-1.831,0-3.466,1.127-4.153,2.774C14.667,51.276,13.845,51,13,51c-2.206,0-4,1.794-4,4c0,0.048,0.001,0.095,0.004,0.142 C7.261,55.59,6,57.169,6,59C6,61.206,7.794,63,10,63z"/><path fill="#472b29" d="M15.5,62c0.159,0,0.841,0,1,0c0.276,0,0.5,0.224,0.5,0.5c0,0.276-0.224,0.5-0.5,0.5 c-0.159,0-0.841,0-1,0c-0.276,0-0.5-0.224-0.5-0.5C15,62.224,15.224,62,15.5,62z"/></g></svg>